<svg width="320" height="80" viewBox="0 0 320 80" fill="none" xmlns="http://www.w3.org/2000/svg">
  <!-- Icon: S-shaped growth arrow -->
  <g transform="translate(4, 4)">
    <!-- Bottom leaf/curve (dark green) -->
    <path d="M20 62 C20 42, 28 28, 36 22 C44 16, 50 18, 50 26 C50 34, 44 38, 36 38 C28 38, 20 42, 20 62Z" fill="#0D7A45"/>
    <!-- Top leaf/curve (light green) -->
    <path d="M52 10 C52 30, 44 44, 36 50 C28 56, 22 54, 22 46 C22 38, 28 34, 36 34 C44 34, 52 30, 52 10Z" fill="#7BC74D"/>
    <!-- Arrow head (white) -->
    <polygon points="44,6 56,14 48,20" fill="white"/>
  </g>
  <!-- Text: AS-SUNNAH -->
  <text x="82" y="38" font-family="'Segoe UI', 'Helvetica Neue', Arial, sans-serif" font-size="28" font-weight="700" fill="#0D7A45" letter-spacing="1.5">AS-SUNNAH</text>
  <!-- Text: SKILL DEVELOPMENT INSTITUTE -->
  <text x="82" y="60" font-family="'Segoe UI', 'Helvetica Neue', Arial, sans-serif" font-size="12.5" font-weight="500" fill="#5BBB5E" letter-spacing="2.8">SKILL DEVELOPMENT INSTITUTE</text>
</svg>
